<svg width="279" height="78" viewBox="0 0 279 78" fill="none" xmlns="http://www.w3.org/2000/svg">
<path d="M128.475 28.5413C122.029 29.713 117.404 29.4656 116.729 27.5851C115.665 24.6207 124.82 18.7205 137.177 14.4066C149.535 10.0928 160.415 8.99882 161.479 11.9632C162.158 13.8552 158.674 16.9432 152.852 20.0513" stroke="#364D9D" stroke-width="2"/>
<ellipse cx="138.739" cy="19.2872" rx="14.4337" ry="14.2347" fill="#364D9D"/>
<path fill-rule="evenodd" clip-rule="evenodd" d="M132.003 14.945C132.003 14.3732 132.473 13.9097 133.053 13.9097H144.6C145.18 13.9097 145.65 14.3732 145.65 14.945V24.2622C145.65 24.834 145.18 25.2975 144.6 25.2975H133.053C132.473 25.2975 132.003 24.834 132.003 24.2622V14.945ZM144.6 14.945H133.053V24.2622H144.6V14.945Z" fill="#EDECEE"/>
<path fill-rule="evenodd" clip-rule="evenodd" d="M132.003 16.4978C132.003 16.212 132.238 15.9802 132.528 15.9802H145.125C145.415 15.9802 145.65 16.212 145.65 16.4978C145.65 16.7837 145.415 17.0155 145.125 17.0155H132.528C132.238 17.0155 132.003 16.7837 132.003 16.4978Z" fill="#EDECEE"/>
<path fill-rule="evenodd" clip-rule="evenodd" d="M136.202 18.0507C136.492 18.0507 136.727 18.2825 136.727 18.5683C136.727 19.1175 136.948 19.6441 137.342 20.0324C137.736 20.4207 138.27 20.6388 138.827 20.6388C139.383 20.6388 139.917 20.4207 140.311 20.0324C140.705 19.6441 140.926 19.1175 140.926 18.5683C140.926 18.2825 141.161 18.0507 141.451 18.0507C141.741 18.0507 141.976 18.2825 141.976 18.5683C141.976 19.392 141.644 20.182 141.053 20.7644C140.463 21.3469 139.662 21.6741 138.827 21.6741C137.991 21.6741 137.19 21.3469 136.6 20.7644C136.009 20.182 135.677 19.392 135.677 18.5683C135.677 18.2825 135.912 18.0507 136.202 18.0507Z" fill="#EDECEE"/>
<path d="M128.475 28.5413C129.563 28.3436 130.702 28.1055 131.883 27.8281M152.852 20.0512C151.755 20.6369 150.575 21.2233 149.324 21.8026" stroke="#F7F7F8" stroke-width="2"/>
<path d="M80.6666 72V59.02H85.9066C86.9066 59.02 87.7366 59.1767 88.3966 59.49C89.0566 59.7967 89.55 60.21 89.8766 60.73C90.2033 61.25 90.3666 61.8267 90.3666 62.46C90.3666 63.1933 90.16 63.82 89.7466 64.34C89.34 64.86 88.7666 65.2267 88.0266 65.44C88.5133 65.54 88.95 65.7233 89.3366 65.99C89.7233 66.2567 90.0266 66.5933 90.2466 67C90.4733 67.4067 90.5866 67.8733 90.5866 68.4C90.5866 68.8133 90.5133 69.23 90.3666 69.65C90.2266 70.07 89.98 70.46 89.6266 70.82C89.28 71.1733 88.8033 71.46 88.1966 71.68C87.5966 71.8933 86.84 72 85.9266 72H80.6666ZM83.0266 69.94H85.8666C86.62 69.94 87.17 69.79 87.5166 69.49C87.87 69.1833 88.0466 68.7733 88.0466 68.26C88.0466 67.7467 87.8666 67.3367 87.5066 67.03C87.1466 66.7167 86.6 66.56 85.8666 66.56H83.0266V69.94ZM83.0266 61.06V64.5H85.8066C86.5066 64.5 87.0366 64.3467 87.3966 64.04C87.7633 63.7267 87.9466 63.3 87.9466 62.76C87.9466 62.2467 87.7666 61.8367 87.4066 61.53C87.0533 61.2167 86.5266 61.06 85.8266 61.06H83.0266ZM97.4554 72.28C96.5687 72.28 95.7654 72.09 95.0454 71.71C94.3321 71.33 93.7654 70.7633 93.3454 70.01C92.9254 69.25 92.7154 68.3 92.7154 67.16C92.7154 66 92.9254 65.04 93.3454 64.28C93.7654 63.52 94.3321 62.9533 95.0454 62.58C95.7654 62.2067 96.5687 62.02 97.4554 62.02C98.3287 62.02 99.1187 62.2067 99.8254 62.58C100.539 62.9533 101.105 63.52 101.525 64.28C101.945 65.04 102.155 66 102.155 67.16C102.155 68.3 101.945 69.25 101.525 70.01C101.105 70.7633 100.539 71.33 99.8254 71.71C99.1187 72.09 98.3287 72.28 97.4554 72.28ZM97.3754 70.22C97.8421 70.22 98.2554 70.1067 98.6154 69.88C98.9821 69.6467 99.2687 69.3033 99.4754 68.85C99.6887 68.3967 99.7954 67.8333 99.7954 67.16C99.7954 66.1333 99.5921 65.36 99.1854 64.84C98.7854 64.32 98.2354 64.06 97.5354 64.06C97.0621 64.06 96.6421 64.1767 96.2754 64.41C95.9087 64.6367 95.6187 64.98 95.4054 65.44C95.1987 65.9 95.0954 66.4733 95.0954 67.16C95.0954 68.1733 95.2987 68.9367 95.7054 69.45C96.1187 69.9633 96.6754 70.22 97.3754 70.22ZM111.144 72L110.844 69.64V65.74C110.844 65.06 110.704 64.5567 110.424 64.23C110.15 63.9033 109.684 63.74 109.024 63.74C108.644 63.74 108.314 63.7967 108.034 63.91C107.754 64.0233 107.537 64.1867 107.384 64.4C107.237 64.6067 107.164 64.86 107.164 65.16H104.584C104.584 64.4267 104.76 63.83 105.114 63.37C105.467 62.9033 105.974 62.5633 106.634 62.35C107.3 62.13 108.097 62.02 109.024 62.02C109.864 62.02 110.597 62.1567 111.224 62.43C111.85 62.6967 112.337 63.11 112.684 63.67C113.03 64.23 113.204 64.9467 113.204 65.82V72H111.144ZM107.964 72.28C107.13 72.28 106.434 72.1367 105.874 71.85C105.32 71.5567 104.904 71.1733 104.624 70.7C104.344 70.2267 104.204 69.7133 104.204 69.16C104.204 68.5467 104.364 68.0333 104.684 67.62C105.01 67.2 105.47 66.8867 106.064 66.68C106.657 66.4667 107.357 66.36 108.164 66.36C108.69 66.36 109.187 66.4 109.654 66.48C110.127 66.56 110.597 66.6667 111.064 66.8V68.18C110.697 68.06 110.297 67.9667 109.864 67.9C109.43 67.8333 109.024 67.8 108.644 67.8C108.084 67.8 107.624 67.9033 107.264 68.11C106.904 68.3167 106.724 68.6667 106.724 69.16C106.724 69.52 106.87 69.83 107.164 70.09C107.457 70.35 107.924 70.48 108.564 70.48C109.05 70.48 109.464 70.3733 109.804 70.16C110.144 69.9467 110.4 69.68 110.574 69.36C110.754 69.04 110.844 68.72 110.844 68.4H111.404C111.404 69.1 111.274 69.7467 111.014 70.34C110.754 70.9267 110.367 71.3967 109.854 71.75C109.347 72.1033 108.717 72.28 107.964 72.28ZM120.283 72.28C119.349 72.28 118.546 72.1533 117.873 71.9C117.206 71.64 116.693 71.27 116.333 70.79C115.973 70.3033 115.789 69.72 115.783 69.04H117.963C117.983 69.52 118.173 69.87 118.533 70.09C118.893 70.31 119.383 70.42 120.003 70.42C120.343 70.42 120.643 70.37 120.903 70.27C121.169 70.17 121.376 70.0333 121.523 69.86C121.669 69.6867 121.743 69.4933 121.743 69.28C121.743 69.0067 121.643 68.7933 121.443 68.64C121.249 68.48 120.936 68.3333 120.503 68.2L118.383 67.44C117.623 67.1667 117.039 66.8067 116.633 66.36C116.226 65.9133 116.023 65.38 116.023 64.76C116.023 63.94 116.393 63.28 117.133 62.78C117.879 62.2733 118.876 62.02 120.123 62.02C121.363 62.02 122.319 62.2933 122.993 62.84C123.673 63.38 124.023 64.0667 124.043 64.9H121.823C121.789 64.58 121.636 64.3267 121.363 64.14C121.089 63.9533 120.676 63.86 120.123 63.86C119.623 63.86 119.229 63.9633 118.943 64.17C118.663 64.37 118.523 64.6067 118.523 64.88C118.523 65.34 118.916 65.6867 119.703 65.92L122.003 66.78C122.749 67.0333 123.329 67.36 123.743 67.76C124.156 68.16 124.363 68.6667 124.363 69.28C124.363 69.7933 124.189 70.28 123.843 70.74C123.503 71.1933 123.026 71.5633 122.413 71.85C121.799 72.1367 121.089 72.28 120.283 72.28ZM130.648 62.3H133.368L135.688 69.98H135.508L137.828 62.3H140.548L136.928 72H134.268L130.648 62.3ZM144.019 60.52C143.559 60.52 143.199 60.4 142.939 60.16C142.686 59.9133 142.559 59.5733 142.559 59.14C142.559 58.72 142.686 58.3867 142.939 58.14C143.199 57.8867 143.559 57.76 144.019 57.76C144.473 57.76 144.829 57.8867 145.089 58.14C145.349 58.3867 145.479 58.72 145.479 59.14C145.479 59.5733 145.349 59.9133 145.089 60.16C144.829 60.4 144.473 60.52 144.019 60.52ZM142.839 72V62.26H145.199V72H142.839ZM155.862 72V66.32C155.862 65.6 155.688 65.0567 155.342 64.69C154.995 64.3233 154.542 64.14 153.982 64.14C153.508 64.14 153.088 64.27 152.722 64.53C152.362 64.79 152.078 65.1833 151.872 65.71C151.665 66.23 151.562 66.88 151.562 67.66H150.782C150.782 66.4 150.938 65.3533 151.252 64.52C151.565 63.68 152.008 63.0533 152.582 62.64C153.155 62.2267 153.828 62.02 154.602 62.02C155.402 62.02 156.068 62.2 156.602 62.56C157.142 62.9133 157.545 63.4133 157.812 64.06C158.085 64.7067 158.222 65.46 158.222 66.32V72H155.862ZM149.202 72V62.3H151.262L151.562 64.22V72H149.202ZM165.243 72.28C164.429 72.28 163.686 72.0667 163.013 71.64C162.346 71.2067 161.813 70.6033 161.413 69.83C161.019 69.05 160.823 68.14 160.823 67.1C160.823 66.0733 161.013 65.18 161.393 64.42C161.779 63.6533 162.293 63.0633 162.933 62.65C163.579 62.23 164.296 62.02 165.083 62.02C165.803 62.02 166.426 62.1933 166.953 62.54C167.479 62.88 167.883 63.3867 168.163 64.06C168.443 64.7333 168.583 65.56 168.583 66.54H167.843C167.843 66.0333 167.739 65.6033 167.533 65.25C167.326 64.89 167.053 64.6167 166.713 64.43C166.379 64.2367 166.016 64.14 165.623 64.14C165.149 64.14 164.729 64.2633 164.363 64.51C164.003 64.7567 163.719 65.1033 163.513 65.55C163.306 65.99 163.203 66.5067 163.203 67.1C163.203 67.7133 163.306 68.2467 163.513 68.7C163.719 69.1533 164.003 69.5067 164.363 69.76C164.729 70.0133 165.143 70.14 165.603 70.14C165.976 70.14 166.333 70.04 166.673 69.84C167.019 69.6333 167.299 69.3467 167.513 68.98C167.733 68.6133 167.843 68.1867 167.843 67.7H168.583C168.583 68.72 168.429 69.57 168.123 70.25C167.823 70.9233 167.419 71.43 166.913 71.77C166.406 72.11 165.849 72.28 165.243 72.28ZM168.283 72L167.843 69.6V58.28H170.223V72H168.283ZM180.128 72L179.828 69.64V65.74C179.828 65.06 179.688 64.5567 179.408 64.23C179.135 63.9033 178.668 63.74 178.008 63.74C177.628 63.74 177.298 63.7967 177.018 63.91C176.738 64.0233 176.521 64.1867 176.368 64.4C176.221 64.6067 176.148 64.86 176.148 65.16H173.568C173.568 64.4267 173.745 63.83 174.098 63.37C174.451 62.9033 174.958 62.5633 175.618 62.35C176.285 62.13 177.081 62.02 178.008 62.02C178.848 62.02 179.581 62.1567 180.208 62.43C180.835 62.6967 181.321 63.11 181.668 63.67C182.015 64.23 182.188 64.9467 182.188 65.82V72H180.128ZM176.948 72.28C176.115 72.28 175.418 72.1367 174.858 71.85C174.305 71.5567 173.888 71.1733 173.608 70.7C173.328 70.2267 173.188 69.7133 173.188 69.16C173.188 68.5467 173.348 68.0333 173.668 67.62C173.995 67.2 174.455 66.8867 175.048 66.68C175.641 66.4667 176.341 66.36 177.148 66.36C177.675 66.36 178.171 66.4 178.638 66.48C179.111 66.56 179.581 66.6667 180.048 66.8V68.18C179.681 68.06 179.281 67.9667 178.848 67.9C178.415 67.8333 178.008 67.8 177.628 67.8C177.068 67.8 176.608 67.9033 176.248 68.11C175.888 68.3167 175.708 68.6667 175.708 69.16C175.708 69.52 175.855 69.83 176.148 70.09C176.441 70.35 176.908 70.48 177.548 70.48C178.035 70.48 178.448 70.3733 178.788 70.16C179.128 69.9467 179.385 69.68 179.558 69.36C179.738 69.04 179.828 68.72 179.828 68.4H180.388C180.388 69.1 180.258 69.7467 179.998 70.34C179.738 70.9267 179.351 71.3967 178.838 71.75C178.331 72.1033 177.701 72.28 176.948 72.28ZM189.267 72.28C188.334 72.28 187.53 72.1533 186.857 71.9C186.19 71.64 185.677 71.27 185.317 70.79C184.957 70.3033 184.774 69.72 184.767 69.04H186.947C186.967 69.52 187.157 69.87 187.517 70.09C187.877 70.31 188.367 70.42 188.987 70.42C189.327 70.42 189.627 70.37 189.887 70.27C190.154 70.17 190.36 70.0333 190.507 69.86C190.654 69.6867 190.727 69.4933 190.727 69.28C190.727 69.0067 190.627 68.7933 190.427 68.64C190.234 68.48 189.92 68.3333 189.487 68.2L187.367 67.44C186.607 67.1667 186.024 66.8067 185.617 66.36C185.21 65.9133 185.007 65.38 185.007 64.76C185.007 63.94 185.377 63.28 186.117 62.78C186.864 62.2733 187.86 62.02 189.107 62.02C190.347 62.02 191.304 62.2933 191.977 62.84C192.657 63.38 193.007 64.0667 193.027 64.9H190.807C190.774 64.58 190.62 64.3267 190.347 64.14C190.074 63.9533 189.66 63.86 189.107 63.86C188.607 63.86 188.214 63.9633 187.927 64.17C187.647 64.37 187.507 64.6067 187.507 64.88C187.507 65.34 187.9 65.6867 188.687 65.92L190.987 66.78C191.734 67.0333 192.314 67.36 192.727 67.76C193.14 68.16 193.347 68.6667 193.347 69.28C193.347 69.7933 193.174 70.28 192.827 70.74C192.487 71.1933 192.01 71.5633 191.397 71.85C190.784 72.1367 190.074 72.28 189.267 72.28ZM196.314 67.62L196.054 58.74H198.614L198.334 67.62H196.314ZM197.344 72.18C196.857 72.18 196.461 72.0333 196.154 71.74C195.847 71.44 195.694 71.06 195.694 70.6C195.694 70.16 195.847 69.7867 196.154 69.48C196.461 69.1733 196.857 69.02 197.344 69.02C197.817 69.02 198.214 69.1733 198.534 69.48C198.854 69.7867 199.014 70.16 199.014 70.6C199.014 71.06 198.854 71.44 198.534 71.74C198.214 72.0333 197.817 72.18 197.344 72.18Z" fill="#1A181B"/>
</svg>
