<svg
      xmlns="http://www.w3.org/2000/svg"
      width="193"
      height="113"
      fill="none"
      viewBox="0 0 193 113"
    >
      <path
        stroke="#364D9D"
        strokeWidth="2"
        d="M79.154 45.666c-10.244 1.875-17.594 1.479-18.666-1.53-1.691-4.743 12.857-14.183 32.495-21.085 19.637-6.902 36.927-8.653 38.617-3.91 1.08 3.027-4.456 7.968-13.709 12.941"
      ></path>
      <ellipse
        cx="95.465"
        cy="30.86"
        fill="#364D9D"
        rx="22.937"
        ry="22.776"
      ></ellipse>
      <path
        fill="#EDECEE"
        fillRule="evenodd"
        d="M84.76 23.912c0-.915.747-1.656 1.669-1.656h18.349c.921 0 1.668.741 1.668 1.656V38.82c0 .914-.747 1.656-1.668 1.656h-18.35a1.662 1.662 0 01-1.667-1.656V23.912zm20.018 0h-18.35V38.82h18.35V23.912z"
        clipRule="evenodd"
      ></path>
      <path
        fill="#EDECEE"
        fillRule="evenodd"
        d="M84.76 26.397c0-.458.374-.829.835-.829h20.017a.83.83 0 01.834.829.83.83 0 01-.834.828H85.595a.831.831 0 01-.834-.828zM91.433 28.881c.46 0 .834.371.834.828a3.3 3.3 0 00.977 2.343c.626.621 1.475.97 2.36.97.884 0 1.733-.349 2.359-.97a3.3 3.3 0 00.977-2.343c0-.457.373-.828.834-.828.46 0 .834.371.834.828a4.95 4.95 0 01-1.466 3.514 5.022 5.022 0 01-3.539 1.456c-1.327 0-2.6-.524-3.538-1.456a4.951 4.951 0 01-1.466-3.514c0-.457.373-.828.834-.828z"
        clipRule="evenodd"
      ></path>
      <path
        stroke="#1A181B"
        strokeWidth="2"
        d="M79.154 45.666c1.728-.316 3.539-.697 5.416-1.141m33.321-12.443a110.203 110.203 0 01-5.606 2.802"
      ></path>
      <path
        fill="#1A181B"
        d="M.565 107.061c-.377 0-.565-.189-.565-.566V90.949c0-.356.147-.534.44-.534h3.109c.293 0 .44.157.44.471v1.634c0 .125.031.209.094.25.063.022.146-.02.251-.125a17.684 17.684 0 011.696-1.35 7.914 7.914 0 011.727-.88 5.354 5.354 0 011.916-.345c1.173 0 2.136.272 2.89.816.753.545 1.277 1.236 1.57 2.073.042.084.105.115.188.094a.556.556 0 00.252-.156 12.382 12.382 0 011.727-1.445 8.065 8.065 0 011.884-.974 5.36 5.36 0 011.947-.377c1.487 0 2.66.45 3.518 1.35.858.88 1.288 2.084 1.288 3.613V106.4c0 .44-.22.66-.66.66h-2.89c-.188 0-.324-.042-.407-.126-.084-.084-.126-.23-.126-.44V95.692c0-.817-.21-1.445-.628-1.885-.398-.46-1.005-.69-1.822-.69a3.47 3.47 0 00-1.382.282c-.44.168-.837.387-1.193.66a9.45 9.45 0 00-.942.816 1.435 1.435 0 00-.314.44 1.509 1.509 0 00-.063.47v10.616c0 .44-.22.66-.66.66h-2.89a.632.632 0 01-.408-.126c-.083-.084-.125-.23-.125-.44V95.692c0-.817-.199-1.445-.597-1.885-.398-.46-1.015-.69-1.853-.69-.712 0-1.371.177-1.978.533-.587.356-1.225.89-1.916 1.602v11.181c0 .418-.241.628-.723.628H.565zM37.878 105.333a9.195 9.195 0 01-2.324 1.508c-.837.356-1.79.534-2.858.534-1.612 0-2.879-.419-3.8-1.256-.9-.859-1.35-1.969-1.35-3.33 0-1.151.345-2.146 1.036-2.983.69-.859 1.696-1.529 3.015-2.01 1.319-.482 2.9-.764 4.742-.848l1.57-.094a.979.979 0 00.346-.126c.105-.063.157-.178.157-.345v-.723c0-.921-.272-1.633-.817-2.135-.544-.524-1.298-.786-2.26-.786-.734 0-1.425.168-2.074.503-.628.314-1.172.837-1.633 1.57a.53.53 0 01-.22.252c-.063.041-.188.041-.377 0l-2.638-.66a.571.571 0 01-.25-.188c-.043-.084 0-.252.125-.503.565-1.193 1.455-2.094 2.67-2.7 1.235-.608 2.763-.912 4.585-.912 1.612 0 2.91.22 3.894.66 1.005.44 1.738 1.057 2.198 1.853.461.774.691 1.696.691 2.764v11.055c0 .23-.041.397-.125.502-.063.084-.2.126-.409.126h-2.67c-.188 0-.324-.074-.407-.22a1.339 1.339 0 01-.157-.534l-.063-.942c-.042-.356-.241-.367-.597-.032zm.534-5.873c0-.376-.157-.554-.471-.533l-1.288.094c-.67.042-1.319.146-1.947.314a6.307 6.307 0 00-1.633.628c-.46.251-.838.576-1.13.973-.273.377-.409.828-.409 1.351 0 .712.251 1.277.754 1.696.523.419 1.225.628 2.104.628a4.26 4.26 0 001.57-.283 4.58 4.58 0 001.256-.722c.356-.293.64-.597.848-.911.23-.335.346-.67.346-1.005v-2.23zM46.785 107.061c-.209 0-.355-.042-.44-.126-.083-.105-.125-.251-.125-.44V90.949c0-.356.147-.534.44-.534h3.046c.293 0 .44.157.44.471v1.916c0 .126.042.21.126.251.083.021.178-.03.282-.156.46-.608.953-1.11 1.476-1.508a6.554 6.554 0 011.633-.942c.566-.23 1.11-.346 1.634-.346.753 0 1.13.168 1.13.503v3.015c0 .293-.136.419-.408.377a5.045 5.045 0 00-1.005-.157 7.634 7.634 0 00-.942-.063c-.398 0-.827.084-1.288.251-.44.168-.848.408-1.225.722-.377.294-.68.618-.91.974a2 2 0 00-.346 1.1v9.61c0 .418-.24.628-.722.628h-2.796zM74.93 106.401c.104.147.125.293.063.44-.063.146-.21.22-.44.22h-3.455a.83.83 0 01-.471-.126 1.447 1.447 0 01-.283-.44l-3.768-7.035c-.063-.146-.126-.23-.189-.25-.063-.022-.157.03-.282.156l-2.607 2.575a1.462 1.462 0 00-.22.283 1.226 1.226 0 00-.063.44v3.706c0 .251-.052.429-.157.534-.105.104-.293.157-.565.157H59.76c-.25 0-.418-.042-.502-.126-.084-.105-.126-.251-.126-.44V84.291c0-.356.157-.534.471-.534h3.172c.294 0 .44.168.44.503v13.473c0 .126.031.21.094.251.063.042.157-.01.283-.157l6.532-6.972c.294-.293.555-.44.786-.44h2.858c.272 0 .429.074.47.22.064.147 0 .314-.188.503l-4.616 4.648a.74.74 0 00-.157.314c-.021.105.02.262.125.471l5.528 9.83zM79.914 100.026c0 .858.2 1.633.597 2.324.398.67.942 1.204 1.633 1.601a4.89 4.89 0 002.324.566c.859 0 1.633-.178 2.324-.534.712-.356 1.382-.932 2.01-1.727.084-.105.157-.157.22-.157.063-.021.168.01.314.094l1.916.848c.272.125.303.314.094.565-.628.921-1.308 1.665-2.041 2.23a7.108 7.108 0 01-2.387 1.193c-.859.231-1.832.346-2.92.346-1.592 0-3.016-.356-4.272-1.068a7.92 7.92 0 01-2.984-2.952c-.712-1.277-1.068-2.743-1.068-4.397 0-1.822.367-3.392 1.1-4.711.753-1.32 1.758-2.335 3.015-3.046 1.256-.733 2.638-1.1 4.145-1.1 1.591 0 2.973.346 4.146 1.037 1.193.69 2.125 1.685 2.795 2.983.67 1.278 1.005 2.837 1.005 4.68 0 .21-.02.377-.063.502-.02.126-.167.2-.44.22H80.26c-.126 0-.22.042-.283.126a.875.875 0 00-.063.377zm7.444-2.827c.209 0 .345-.02.408-.063.084-.063.125-.188.125-.377 0-.649-.146-1.287-.44-1.915a3.831 3.831 0 00-1.287-1.54c-.565-.418-1.256-.627-2.073-.627-.837 0-1.57.209-2.198.628a3.908 3.908 0 00-1.445 1.633c-.314.67-.47 1.424-.47 2.261h7.38zM100.557 93.273c-.209 0-.314.115-.314.346v8.385c0 .817.168 1.382.503 1.696.335.314.858.471 1.57.471h1.853c.126 0 .23.042.314.126a.425.425 0 01.126.314l-.032 1.633c0 .335-.199.545-.596.628-.314.042-.681.084-1.1.126l-1.256.063h-1.099c-1.403 0-2.481-.325-3.235-.974-.754-.67-1.13-1.675-1.13-3.015v-9.39c0-.273-.126-.409-.377-.409h-2.105c-.335 0-.502-.157-.502-.47v-1.98c0-.272.157-.408.47-.408h2.325c.188 0 .283-.104.283-.314l.408-4.836c.02-.335.167-.503.44-.503h2.795c.293 0 .439.178.439.534v4.805c0 .189.095.283.283.283h3.549c.314 0 .471.147.471.44v1.978c0 .314-.178.471-.534.471h-3.549zM117.736 94.53c-.397-.524-.921-.963-1.57-1.32-.649-.355-1.445-.533-2.387-.533-.9 0-1.654.178-2.261.533-.607.357-.911.859-.911 1.508 0 .314.126.618.377.91.251.294.806.556 1.665.786l3.737 1.005c1.633.398 2.795 1.026 3.486 1.884.712.838 1.068 1.791 1.068 2.858 0 1.089-.314 2.021-.942 2.796-.608.774-1.466 1.371-2.576 1.79-1.088.418-2.334.628-3.737.628-1.801 0-3.34-.325-4.617-.974-1.277-.67-2.177-1.497-2.701-2.481a.78.78 0 01-.094-.345c0-.126.052-.231.157-.314l1.853-.943c.168-.104.304-.146.408-.125a.402.402 0 01.252.157c.314.439.67.837 1.067 1.193.419.356.922.639 1.508.848.607.21 1.34.304 2.198.283a5.77 5.77 0 001.759-.251c.544-.168.974-.398 1.288-.691.314-.314.471-.691.471-1.131 0-.419-.178-.785-.534-1.099-.356-.314-.995-.586-1.916-.817l-3.203-.754c-1.592-.376-2.764-.942-3.518-1.695-.733-.754-1.099-1.696-1.099-2.827 0-1.047.272-1.968.817-2.764.565-.795 1.36-1.413 2.386-1.853 1.026-.46 2.241-.69 3.644-.69 1.549 0 2.889.282 4.02.847 1.13.566 1.957 1.267 2.481 2.105a.75.75 0 01.157.345c.042.126-.011.23-.157.314l-1.948.974a.532.532 0 01-.345.062.694.694 0 01-.283-.22zM127.517 90.415c.398 0 .596.189.596.566v1.068c0 .146.042.23.126.25.084 0 .178-.052.283-.156.314-.293.67-.597 1.068-.911a5.667 5.667 0 011.507-.785c.586-.23 1.298-.346 2.136-.346 1.256 0 2.376.314 3.36.942.984.608 1.769 1.54 2.356 2.796.586 1.235.879 2.805.879 4.71 0 1.969-.293 3.612-.879 4.931-.587 1.299-1.403 2.272-2.45 2.921-1.026.649-2.209.974-3.549.974-.858 0-1.644-.136-2.355-.408a5.897 5.897 0 01-1.916-1.194c-.21-.188-.356-.272-.44-.251-.084.021-.126.167-.126.44v5.778c0 .335-.146.503-.439.503h-3.204c-.293 0-.439-.168-.439-.503V91.043c0-.23.042-.387.125-.47.084-.105.252-.158.503-.158h2.858zm.596 12.563c.482.523.995.942 1.539 1.256a3.819 3.819 0 001.885.471c.837 0 1.56-.209 2.167-.628.628-.44 1.109-1.11 1.444-2.01.356-.921.534-2.104.534-3.549 0-1.424-.178-2.554-.534-3.392-.335-.837-.816-1.434-1.444-1.79a3.794 3.794 0 00-2.042-.565c-.691 0-1.308.146-1.853.44a3.492 3.492 0 00-1.256 1.067c-.293.44-.44.9-.44 1.382v7.318zM152.217 105.333a9.207 9.207 0 01-2.324 1.508c-.838.356-1.79.534-2.858.534-1.612 0-2.879-.419-3.8-1.256-.901-.859-1.351-1.969-1.351-3.33 0-1.151.346-2.146 1.037-2.983.691-.859 1.696-1.529 3.015-2.01 1.319-.482 2.899-.764 4.742-.848l1.57-.094a.98.98 0 00.346-.126c.104-.063.157-.178.157-.345v-.723c0-.921-.272-1.633-.817-2.135-.544-.524-1.298-.786-2.261-.786-.733 0-1.424.168-2.073.503-.628.314-1.172.837-1.633 1.57a.531.531 0 01-.22.252c-.063.041-.188.041-.377 0l-2.638-.66a.57.57 0 01-.251-.188c-.042-.084 0-.252.126-.503.565-1.193 1.455-2.094 2.669-2.7 1.235-.608 2.764-.912 4.585-.912 1.613 0 2.911.22 3.895.66 1.005.44 1.738 1.057 2.198 1.853.461.774.691 1.696.691 2.764v11.055c0 .23-.042.397-.125.502-.063.084-.199.126-.409.126h-2.669c-.189 0-.325-.074-.409-.22a1.352 1.352 0 01-.157-.534l-.062-.942c-.042-.356-.241-.367-.597-.032zm.534-5.873c0-.376-.157-.554-.471-.533l-1.288.094a9.944 9.944 0 00-1.947.314 6.302 6.302 0 00-1.633.628 3.41 3.41 0 00-1.131.973c-.272.377-.408.828-.408 1.351 0 .712.251 1.277.754 1.696.523.419 1.224.628 2.104.628.565 0 1.089-.094 1.57-.283.482-.188.9-.429 1.256-.722s.639-.597.848-.911c.231-.335.346-.67.346-1.005v-2.23zM167.908 90.101c1.256 0 2.345.22 3.266.66.922.419 1.675.973 2.262 1.664a7.445 7.445 0 011.381 2.136c.126.377.021.576-.314.597l-2.763.345c-.21.042-.356-.052-.44-.282a9.625 9.625 0 00-.848-1.225 3.498 3.498 0 00-1.005-.848c-.377-.21-.838-.314-1.382-.314-.837 0-1.581.23-2.23.69-.628.44-1.12 1.1-1.476 1.98-.335.879-.502 1.957-.502 3.234 0 1.298.178 2.387.534 3.266.376.88.889 1.55 1.538 2.01.649.44 1.424.66 2.325.66.942 0 1.716-.241 2.324-.723.607-.502 1.172-1.193 1.696-2.072a.412.412 0 01.188-.157c.063-.021.167-.011.314.031l1.979.534c.209.063.272.241.188.534a8.19 8.19 0 01-.911 1.539 7.342 7.342 0 01-1.413 1.507c-.565.44-1.246.806-2.041 1.1-.775.272-1.665.408-2.67.408-1.591 0-3.005-.356-4.24-1.068a7.93 7.93 0 01-2.921-3.015c-.691-1.298-1.036-2.795-1.036-4.491 0-1.717.356-3.225 1.068-4.523.712-1.319 1.685-2.345 2.921-3.078 1.235-.732 2.638-1.099 4.208-1.099zM181.034 100.026c0 .858.199 1.633.597 2.324.398.67.942 1.204 1.633 1.601a4.891 4.891 0 002.324.566c.859 0 1.633-.178 2.324-.534.712-.356 1.382-.932 2.01-1.727.084-.105.157-.157.22-.157.063-.021.168.01.314.094l1.916.848c.272.125.303.314.094.565-.628.921-1.309 1.665-2.041 2.23a7.112 7.112 0 01-2.387 1.193c-.859.231-1.832.346-2.921.346-1.591 0-3.015-.356-4.271-1.068a7.918 7.918 0 01-2.984-2.952c-.712-1.277-1.068-2.743-1.068-4.397 0-1.822.367-3.392 1.1-4.711.753-1.32 1.758-2.335 3.015-3.046 1.256-.733 2.638-1.1 4.145-1.1 1.591 0 2.973.346 4.146 1.037 1.193.69 2.125 1.685 2.795 2.983.67 1.278 1.005 2.837 1.005 4.68 0 .21-.021.377-.063.502-.021.126-.167.2-.439.22H181.38c-.126 0-.22.042-.283.126a.873.873 0 00-.063.377zm7.443-2.827c.21 0 .346-.02.409-.063.084-.063.125-.188.125-.377 0-.649-.146-1.287-.439-1.915a3.834 3.834 0 00-1.288-1.54c-.565-.418-1.256-.627-2.073-.627-.837 0-1.57.209-2.198.628a3.91 3.91 0 00-1.445 1.633c-.314.67-.471 1.424-.471 2.261h7.38z"
      ></path>
    </svg>